<svg xmlns="http://www.w3.org/2000/svg" width="20" height="21" viewBox="0 0 20 21" fill="none">
<path d="M12.7008 4.05396L12.945 5.74479H16.25C16.4158 5.74479 16.5747 5.81064 16.6919 5.92785C16.8092 6.04506 16.875 6.20403 16.875 6.36979C16.875 6.53555 16.8092 6.69452 16.6919 6.81173C16.5747 6.92894 16.4158 6.99479 16.25 6.99479H15.6092L14.8817 15.4823C14.8375 15.999 14.8017 16.424 14.7442 16.7673C14.6858 17.1248 14.5967 17.4448 14.4225 17.7415C14.149 18.2074 13.7424 18.5809 13.255 18.814C12.945 18.9615 12.6183 19.0223 12.2567 19.0506C11.9092 19.0781 11.4833 19.0781 10.965 19.0781H9.035C8.51667 19.0781 8.09083 19.0781 7.74333 19.0506C7.38167 19.0223 7.055 18.9615 6.745 18.814C6.25757 18.5809 5.85098 18.2074 5.5775 17.7415C5.4025 17.4448 5.315 17.1248 5.25583 16.7673C5.19833 16.4231 5.1625 15.999 5.11833 15.4823L4.39083 6.99479H3.75C3.58424 6.99479 3.42527 6.92894 3.30806 6.81173C3.19085 6.69452 3.125 6.53555 3.125 6.36979C3.125 6.20403 3.19085 6.04506 3.30806 5.92785C3.42527 5.81064 3.58424 5.74479 3.75 5.74479H7.055L7.29917 4.05396L7.30833 4.00313C7.46 3.34479 8.025 2.82812 8.73333 2.82812H11.2667C11.975 2.82812 12.54 3.34479 12.6917 4.00313L12.7008 4.05396ZM8.3175 5.74479H11.6817L11.4683 4.26479C11.4283 4.12562 11.3267 4.07812 11.2658 4.07812H8.73417C8.67333 4.07812 8.57167 4.12562 8.53167 4.26479L8.3175 5.74479ZM9.375 9.70312C9.375 9.53736 9.30915 9.37839 9.19194 9.26118C9.07473 9.14397 8.91576 9.07812 8.75 9.07812C8.58424 9.07812 8.42527 9.14397 8.30806 9.26118C8.19085 9.37839 8.125 9.53736 8.125 9.70312V13.8698C8.125 14.0356 8.19085 14.1945 8.30806 14.3117C8.42527 14.4289 8.58424 14.4948 8.75 14.4948C8.91576 14.4948 9.07473 14.4289 9.19194 14.3117C9.30915 14.1945 9.375 14.0356 9.375 13.8698V9.70312ZM11.875 9.70312C11.875 9.53736 11.8092 9.37839 11.6919 9.26118C11.5747 9.14397 11.4158 9.07812 11.25 9.07812C11.0842 9.07812 10.9253 9.14397 10.8081 9.26118C10.6908 9.37839 10.625 9.53736 10.625 9.70312V13.8698C10.625 14.0356 10.6908 14.1945 10.8081 14.3117C10.9253 14.4289 11.0842 14.4948 11.25 14.4948C11.4158 14.4948 11.5747 14.4289 11.6919 14.3117C11.8092 14.1945 11.875 14.0356 11.875 13.8698V9.70312Z" fill="#E60001"/>
</svg>