<svg xmlns="http://www.w3.org/2000/svg" width="20" height="20" viewBox="0 0 20 20" fill="none">
  <g clip-path="url(#clip0_5855_14776)">
    <path d="M20 9.99903C20 4.47619 15.5228 -0.000963211 9.99999 -0.000963211C4.47716 -0.000963211 0 4.47619 0 9.99903C0 14.6888 3.2286 18.6239 7.58423 19.7045V13.0549H5.52216V9.99903H7.58423V8.68227C7.58423 5.27859 9.12455 3.70099 12.4662 3.70099C13.0997 3.70099 14.1928 3.82519 14.64 3.94943V6.71959C14.404 6.69475 13.9941 6.68231 13.4848 6.68231C11.845 6.68231 11.2115 7.30343 11.2115 8.91831V9.99903H14.4778L13.9167 13.0549H11.2115V19.9258C16.1629 19.3277 20 15.1117 20 9.99903Z" fill="white"/>
    <path d="M13.3946 11.0558L13.9557 8.00001H10.6894V6.91925C10.6894 5.30437 11.3229 4.68329 12.9626 4.68329C13.4719 4.68329 13.8818 4.69569 14.1179 4.72053V1.95041C13.6707 1.82617 12.5775 1.70193 11.944 1.70193C8.60244 1.70193 7.06208 3.27957 7.06208 6.68325V8.00001H5V11.0558H7.06208V17.7055C7.8358 17.8974 8.6448 18 9.47784 18C9.888 18 10.2922 17.9747 10.6894 17.9268V11.0558H13.3946Z" fill="black"/>
  </g>
  <defs>
    <clipPath id="clip0_5855_14776">
      <rect width="20" height="20" fill="white"/>
    </clipPath>
  </defs>
</svg>