<svg xmlns="http://www.w3.org/2000/svg" width="20" height="20" viewBox="0 0 20 20" fill="none">
  <path d="M14.3138 7.22037C15.5999 8.14301 17.1754 8.68588 18.8771 8.68588V5.39966C18.5551 5.39972 18.2339 5.36602 17.9188 5.29903V7.88576C16.2172 7.88576 14.6419 7.34289 13.3554 6.42032V13.1265C13.3554 16.4813 10.6455 19.2007 7.30282 19.2007C6.05559 19.2007 4.89634 18.8223 3.93335 18.1734C5.03244 19.3012 6.56521 20.0008 8.26095 20.0008C11.6038 20.0008 14.3139 17.2814 14.3139 13.9265V7.22037H14.3138ZM15.496 3.90498C14.8387 3.18434 14.4071 2.25304 14.3138 1.22346V0.800781H13.4056C13.6342 2.10938 14.4139 3.22737 15.496 3.90498ZM6.04759 15.599C5.68036 15.1158 5.48191 14.5246 5.4828 13.9168C5.4828 12.3825 6.7223 11.1384 8.25152 11.1384C8.53651 11.1383 8.8198 11.1821 9.09139 11.2686V7.90896C8.77399 7.8653 8.45366 7.84677 8.13346 7.85356V10.4686C7.86166 10.3821 7.57824 10.3382 7.29318 10.3384C5.76396 10.3384 4.52453 11.5824 4.52453 13.1169C4.52453 14.202 5.14408 15.1414 6.04759 15.599Z" fill="black" fill-opacity="0.54"/>
  <path d="M13.3554 6.42025C14.6419 7.34282 16.2172 7.88569 17.9188 7.88569V5.29896C16.969 5.09593 16.1281 4.59782 15.4959 3.90498C14.4138 3.2273 13.6342 2.10931 13.4056 0.800781H11.0201V13.9263C11.0147 15.4565 9.77728 16.6955 8.25135 16.6955C7.35214 16.6955 6.55329 16.2653 6.04735 15.599C5.14391 15.1414 4.52436 14.2019 4.52436 13.117C4.52436 11.5826 5.7638 10.3385 7.29301 10.3385C7.586 10.3385 7.8684 10.3843 8.13329 10.4686V7.85363C4.84934 7.92172 2.20825 10.6146 2.20825 13.9264C2.20825 15.5796 2.86594 17.0784 3.93339 18.1734C4.89637 18.8223 6.05562 19.2008 7.30285 19.2008C10.6456 19.2008 13.3555 16.4813 13.3555 13.1265V6.42025H13.3554Z" fill="black"/>
  <path d="M17.9188 5.29817V4.59874C17.0623 4.60004 16.2226 4.35932 15.496 3.90411C16.1392 4.61089 16.9863 5.09822 17.9188 5.29817ZM13.4056 0.799986C13.3838 0.674926 13.367 0.549042 13.3554 0.422678V0H10.0617V13.1257C10.0564 14.6556 8.8191 15.8946 7.29303 15.8946C6.845 15.8946 6.42199 15.7879 6.04737 15.5983C6.55331 16.2645 7.35216 16.6946 8.25137 16.6946C9.77717 16.6946 11.0148 15.4558 11.0201 13.9256V0.799986H13.4056ZM8.13345 7.85284V7.10824C7.85823 7.07049 7.58076 7.05155 7.30294 7.05169C3.95993 7.05162 1.25 9.77116 1.25 13.1257C1.25 15.2288 2.31505 17.0822 3.93347 18.1725C2.86603 17.0775 2.20834 15.5787 2.20834 13.9255C2.20834 10.6138 4.84936 7.92093 8.13345 7.85284Z" fill="white"/>
</svg>