<svg width="100" height="23" viewBox="0 0 100 23" fill="none" xmlns="http://www.w3.org/2000/svg">
<g clip-path="url(#clip0_2581_4787)">
<path d="M97.8472 11.8737L88.0997 2.05781C85.5964 -0.445513 81.8098 -0.708754 79.6026 1.49842C77.3954 3.67269 77.6283 7.49222 80.1291 9.99554L89.8766 19.7785C92.3799 22.2818 96.1665 22.5451 98.3737 20.3379C100.548 18.1636 100.318 14.377 97.8472 11.8737ZM97.9459 19.943C96.7917 21.0947 94.8478 20.9631 93.5999 19.7127L80.2278 6.27473C78.9774 5.02433 78.8787 3.0475 80.0303 1.92619C81.182 0.774509 83.126 0.90613 84.3764 2.15653L97.7485 15.6274C98.9989 16.8778 99.0976 18.8217 97.9459 19.943Z" fill="#C19652"/>
<path d="M88.0664 19.7785L97.8468 10.0284C100.35 7.52512 100.613 3.7385 98.4062 1.53132C96.2319 -0.675852 92.4124 -0.445517 89.9091 2.05781L80.1261 11.8079C77.6253 14.3112 77.3595 18.0978 79.5667 20.305C81.7385 22.5121 85.5605 22.2818 88.0638 19.7785H88.0664ZM79.9641 19.9101C78.8124 18.7584 78.944 16.8145 80.1944 15.5616L93.6653 2.18943C94.9157 0.939031 96.8925 0.840315 98.0113 1.992C99.163 3.14368 99.0314 5.08761 97.781 6.34054L84.3101 19.7127C83.0597 20.9631 81.1158 21.0289 79.9641 19.9101Z" fill="#C19652"/>
<path d="M17.4279 0.136856H22.0119L12.6592 9.30473C17.6482 9.96031 21.9815 22.4314 25.4112 21.5885L25.4745 21.8391C11.0064 25.7042 16.6812 5.25234 10.1357 11.8005L5.86305 16.0098V21.8391H1.80559V6.68498C1.80559 3.50584 0.965246 0.605122 0.155273 0.387441V0.136856H5.86052V14.2304L9.50793 10.6133L14.5905 5.62442C16.7724 3.47293 18.2379 0.605122 17.4279 0.387441V0.136856Z" fill="#C19652"/>
<path d="M28.0283 0.136841H33.7336V21.8365H29.6812V6.68496C29.6812 3.50582 28.8712 0.605106 28.0283 0.387426V0.136841Z" fill="#C19652"/>
<path d="M53.3173 17.1614C51.6948 18.4396 49.2016 17.941 46.6148 17.3791C44.1519 16.8804 41.6258 16.3514 40.1907 17.6296L38.4442 21.839H37.0723L43.4331 6.68488H43.4002C44.6177 3.84745 44.929 0.605024 44.1165 0.387344V0.106384H50.571L59.6756 21.839H55.2789L53.3148 17.1614H53.3173ZM40.9703 15.7895C42.6864 15.2908 44.805 15.7262 46.8932 16.1641C49.2624 16.6627 51.6012 17.131 52.8161 15.9464L46.8603 1.75923L40.9677 15.7895H40.9703Z" fill="#C19652"/>
<path d="M61.4549 0.136856H67.1602V21.8365H63.1052V6.68498C63.1052 3.50584 62.2953 0.605122 61.4524 0.387441V0.136856H61.4549Z" fill="#C19652"/>
</g>
<defs>
<clipPath id="clip0_2581_4787">
<rect width="100" height="23" fill="white"/>
</clipPath>
</defs>
</svg>
