<svg width="32" height="32" viewBox="0 0 32 32" fill="none" xmlns="http://www.w3.org/2000/svg">
<path d="M17.5 9.40115L18.88 11.8237C18.931 11.9179 19.0015 12.0001 19.0869 12.0648C19.1723 12.1295 19.2705 12.1751 19.375 12.1987L22.03 12.8062C22.3355 12.8837 22.616 13.0382 22.8448 13.2549C23.0737 13.4716 23.2432 13.7433 23.3372 14.0441C23.4312 14.345 23.4466 14.6648 23.3819 14.9733C23.3171 15.2817 23.1745 15.5685 22.9675 15.8062L21.1675 17.9062C21.0969 17.9895 21.0439 18.0863 21.0117 18.1907C20.9794 18.2951 20.9687 18.405 20.98 18.5137L21.25 21.3112C21.2888 21.6219 21.2448 21.9374 21.1225 22.2257C21.0002 22.514 20.8038 22.7648 20.5534 22.9529C20.303 23.1409 20.0073 23.2594 19.6963 23.2964C19.3853 23.3334 19.0701 23.2876 18.7825 23.1637L16.2925 22.0387C16.1958 21.9952 16.091 21.9727 15.985 21.9727C15.879 21.9727 15.7742 21.9952 15.6775 22.0387L13.1875 23.1637C12.9013 23.2805 12.5896 23.3208 12.2831 23.2804C11.9766 23.24 11.686 23.1203 11.4399 22.9333C11.1938 22.7462 11.0007 22.4982 10.8797 22.2138C10.7587 21.9293 10.714 21.6182 10.75 21.3112L11.0125 18.5137C11.0238 18.405 11.0131 18.2951 10.9809 18.1907C10.9486 18.0863 10.8956 17.9895 10.825 17.9062L9.02501 15.8062C8.81803 15.5685 8.67538 15.2817 8.61066 14.9733C8.54595 14.6648 8.56133 14.345 8.65533 14.0441C8.74934 13.7433 8.91884 13.4716 9.14767 13.2549C9.3765 13.0382 9.65703 12.8837 9.96251 12.8062L12.6175 12.1987C12.722 12.1751 12.8203 12.1295 12.9056 12.0648C12.991 12.0001 13.0616 11.9179 13.1125 11.8237L14.5 9.40115C14.6536 9.13985 14.8728 8.9232 15.1359 8.77268C15.399 8.62215 15.6969 8.54297 16 8.54297C16.3031 8.54297 16.601 8.62215 16.8641 8.77268C17.1272 8.9232 17.3464 9.13985 17.5 9.40115Z" fill="#F6B100"/>
</svg>
