<svg width="28" height="28" viewBox="0 0 28 28" fill="none" xmlns="http://www.w3.org/2000/svg">
<path d="M25.0913 15.4616L13.0531 3.33899C9.96148 0.247388 5.285 -0.0777146 2.55914 2.64815C-0.166726 5.33337 0.12087 10.0505 3.20935 13.1421L15.2475 25.224C18.3391 28.3156 23.0156 28.6407 25.7415 25.9149C28.4267 23.2297 28.1422 18.5532 25.0913 15.4616ZM25.2132 25.4272C23.7877 26.8496 21.387 26.687 19.8459 25.1428L3.33126 8.54689C1.78702 7.00265 1.6651 4.56125 3.08743 3.17644C4.50975 1.75411 6.91052 1.91667 8.45475 3.4609L24.9693 20.0974C26.5136 21.6417 26.6355 24.0424 25.2132 25.4272Z" fill="#C19652"/>
<path d="M13.0118 25.2239L25.0907 13.1826C28.1823 10.091 28.5074 5.41449 25.7815 2.68863C23.0963 -0.037235 18.3792 0.24723 15.2875 3.33883L3.2056 15.3801C0.117127 18.4717 -0.2111 23.1482 2.51476 25.8741C5.19686 28.5999 9.91711 28.3155 13.0087 25.2239H13.0118ZM3.00555 25.3864C1.58322 23.9641 1.74576 21.5633 3.29 20.016L19.9265 3.50138C21.4708 1.95715 23.9122 1.83523 25.2938 3.25756C26.7162 4.67988 26.5536 7.08064 25.0094 8.62801L8.37286 25.1426C6.82862 26.6868 4.42787 26.7681 3.00555 25.3864Z" fill="#C19652"/>
</svg>
